/* XPM */
static char *pixelarticons__battery_full[] = {
/* columns rows colors chars-per-pixel */
"24 24 2 1 ",
"  c None",
". c white",
/* pixels */
"                        ",
"                        ",
"                        ",
"                        ",
"                        ",
"  ..................    ",
"  ..................    ",
"  ..              ..    ",
"  ..              ..    ",
"  ..  ..  ..  ..  ....  ",
"  ..  ..  ..  ..  ....  ",
"  ..  ..  ..  ..  ....  ",
"  ..  ..  ..  ..  ....  ",
"  ..  ..  ..  ..  ....  ",
"  ..  ..  ..  ..  ....  ",
"  ..              ..    ",
"  ..              ..    ",
"  ..................    ",
"  ..................    ",
"                        ",
"                        ",
"                        ",
"                        ",
"                        "
};
