/* XPM */
static char *pixelarticons__volume[] = {
/* columns rows colors chars-per-pixel */
"24 24 2 1 ",
"  c None",
". c white",
/* pixels */
"                        ",
"                        ",
"               ..       ",
"               ..       ",
"             ....       ",
"             ....       ",
"           ..  ..       ",
"           ..  ..       ",
"       ....    ..       ",
"       ....    ..       ",
"       ..      ..       ",
"       ..      ..       ",
"       ..      ..       ",
"       ..      ..       ",
"       ....    ..       ",
"       ....    ..       ",
"           ..  ..       ",
"           ..  ..       ",
"             ....       ",
"             ....       ",
"               ..       ",
"               ..       ",
"                        ",
"                        "
};
