/* XPM */
static char *pixelarticons__cellular_signal_off[] = {
/* columns rows colors chars-per-pixel */
"24 24 2 1 ",
"  c None",
". c white",
/* pixels */
"                        ",
"                        ",
"  ..  ..                ",
"  ..  ..                ",
"    ..          ......  ",
"    ..          ......  ",
"  ..  ..        ..  ..  ",
"  ..  ..        ..  ..  ",
"                ..  ..  ",
"                ..  ..  ",
"         ...... ..  ..  ",
"         ...... ..  ..  ",
"         ..  .. ..  ..  ",
"         ..  .. ..  ..  ",
"  ...... ..  .. ..  ..  ",
"  ...... ..  .. ..  ..  ",
"  ..  .. ..  .. ..  ..  ",
"  ..  .. ..  .. ..  ..  ",
"  ...... ...... ......  ",
"  ...... ...... ......  ",
"                        ",
"                        ",
"                        ",
"                        "
};
